<svg width="80" height="80" viewBox="0 0 80 80" fill="none" xmlns="http://www.w3.org/2000/svg">
<rect width="80" height="80" rx="20" fill="#98E0F0"/>
<path d="M35.5557 24.4445C35.5558 25.0282 35.4409 25.6062 35.2175 26.1455C34.9942 26.6848 34.6668 27.1748 34.254 27.5876C33.8413 28.0003 33.3513 28.3277 32.812 28.5511C32.2727 28.7744 31.6947 28.8893 31.1109 28.8893C30.5273 28.8893 29.9493 28.7743 29.4101 28.5509C28.8708 28.3275 28.3809 28.0001 27.9682 27.5874C27.5555 27.1747 27.2281 26.6847 27.0048 26.1454C26.7815 25.6061 26.6666 25.0282 26.6667 24.4445C26.6667 23.2657 27.1349 22.1353 27.9684 21.3018C28.802 20.4683 29.9324 20 31.1112 20C32.29 20 33.4205 20.4683 34.254 21.3018C35.0875 22.1353 35.5557 23.2657 35.5557 24.4445Z" fill="white" stroke="#003647" stroke-width="7"/>
<path d="M44.4443 55.5558H27.7781C23.3339 55.5558 20.0005 52.3147 20 47.7777C19.9995 43.2406 23.3339 40.0001 27.7781 40.0001H35.5557" stroke="#003647" stroke-width="6.33" stroke-linecap="round" stroke-linejoin="round"/>
<path d="M35.5557 40.0001H52.2219C56.6661 40.0001 59.9995 36.7596 60 32.2226C60.0005 27.6855 56.6661 24.4445 52.2219 24.4445H35.5557" stroke="#003647" stroke-width="6.33" stroke-linecap="round" stroke-linejoin="round"/>
<path d="M20 24.4445H26.6667" stroke="#003647" stroke-width="6.33" stroke-linecap="round" stroke-linejoin="round"/>
<path d="M53.3333 55.5558H60" stroke="#003647" stroke-width="6.33" stroke-linecap="round" stroke-linejoin="round"/>
<path d="M53.3333 55.5558C53.3333 56.7345 52.8651 57.8649 52.0316 58.6983C51.1982 59.5318 50.0678 60 48.8891 60C48.3054 60.0001 47.7274 59.8852 47.1882 59.6619C46.6489 59.4386 46.1589 59.1112 45.7462 58.6985C45.3334 58.2858 45.006 57.7959 44.7826 57.2566C44.5592 56.7174 44.4443 56.1394 44.4443 55.5558C44.4443 54.377 44.9125 53.2465 45.746 52.413C46.5796 51.5795 47.71 51.1113 48.8888 51.1113C50.0676 51.1113 51.198 51.5795 52.0316 52.413C52.8651 53.2465 53.3333 54.377 53.3333 55.5558Z" fill="white" stroke="#003647" stroke-width="7"/>
</svg>
