<svg width="80" height="80" viewBox="0 0 80 80" fill="none" xmlns="http://www.w3.org/2000/svg">
<rect width="80" height="80" rx="20" fill="#FFC187"/>
<path d="M62.916 21.5217H31.4038C30.4788 17.7709 27.2164 15 23.3329 15C18.7305 15 15 18.8932 15 23.6958V56.3042C15 56.3512 15.001 56.3976 15.0035 56.443C15.075 61.1814 18.7755 65 23.3334 65H62.9165C64.067 65 65 64.027 65 62.8259V23.6958C64.9995 22.4953 64.067 21.5217 62.916 21.5217ZM19.1665 23.6958C19.1665 21.2942 21.0314 19.3481 23.3329 19.3481C25.6344 19.3481 27.4999 21.2942 27.4999 23.6958V48.7719C26.2744 48.0321 24.8514 47.609 23.3334 47.609C21.8154 47.609 20.3924 48.0326 19.167 48.7719L19.1665 23.6958ZM60.833 60.6519H23.3334C21.0319 60.6519 19.167 58.7058 19.167 56.3042C19.167 53.9027 21.0319 51.9566 23.3334 51.9566C25.6349 51.9566 27.4999 53.9027 27.4999 56.3042C27.4999 57.7536 28.5414 58.4783 29.5834 58.4783C30.6248 58.4783 31.6668 57.7536 31.6668 56.3042V25.8698H60.833V60.6519Z" fill="#FF4D00"/>
<path d="M37.9163 49.7825H54.5826C55.7331 49.7825 56.6661 48.8095 56.6661 47.6085V36.7392C56.6661 36.0546 56.3576 35.4108 55.8326 35.0002L47.4992 28.4785C46.7587 27.8989 45.7397 27.8989 44.9992 28.4785L36.6658 35.0002C36.1413 35.4108 35.8323 36.0552 35.8323 36.7392V47.6085C35.8333 48.8095 36.7658 49.7825 37.9163 49.7825ZM39.9997 37.8259L46.2497 32.9347L52.4996 37.8259V45.4344H39.9997V37.8259Z" fill="#FF4D00"/>
<path d="M54.4366 51.9566H50.4156C49.2652 51.9566 48.3322 52.9296 48.3322 54.1307C48.3322 55.3312 49.2647 56.3047 50.4156 56.3047H54.4366C55.5871 56.3047 56.5201 55.3317 56.5201 54.1307C56.5201 52.9296 55.5871 51.9566 54.4366 51.9566Z" fill="#FF4D00"/>
</svg>
