<svg width="80" height="80" viewBox="0 0 80 80" fill="none" xmlns="http://www.w3.org/2000/svg">
<rect width="80" height="80" rx="20" fill="#98EFB7"/>
<path fill-rule="evenodd" clip-rule="evenodd" d="M48.7527 20.1832C49.368 19.5537 50.2022 19.2 51.072 19.2C51.9418 19.2 52.776 19.5537 53.3913 20.1832L58.2398 25.1481C58.8546 25.7782 59.2 26.6324 59.2 27.5231C59.2 28.4138 58.8546 29.268 58.2398 29.898L53.0032 35.2603L52.9807 35.2853L32.679 55.1276C32.3081 55.4907 31.8593 55.7597 31.3684 55.9129L21.0133 59.1383C20.7697 59.2138 20.5107 59.2201 20.2639 59.1567C20.0172 59.0933 19.7918 58.9625 19.6119 58.7783C19.4319 58.594 19.3042 58.3632 19.2423 58.1105C19.1804 57.8578 19.1866 57.5926 19.2602 57.3432L22.397 46.7837C22.5615 46.231 22.8624 45.7311 23.2707 45.3322L43.5273 25.5321L48.7527 20.1832ZM44.4873 28.5752L25.2131 47.4153C25.1545 47.4722 25.1112 47.5436 25.0875 47.6227L22.7176 55.598L30.5491 53.1578C30.6194 53.1356 30.6836 53.0968 30.7366 53.0445L49.9977 34.2178L44.4873 28.5752ZM52.0094 32.2077L56.2524 27.8648C56.296 27.8202 56.3307 27.7673 56.3543 27.709C56.3779 27.6506 56.3901 27.5881 56.3901 27.525C56.3901 27.4619 56.3779 27.3994 56.3543 27.341C56.3307 27.2827 56.296 27.2298 56.2524 27.1852L51.4038 22.2203C51.3603 22.1756 51.3086 22.1401 51.2516 22.1159C51.1947 22.0917 51.1336 22.0793 51.072 22.0793C51.0103 22.0793 50.9493 22.0917 50.8923 22.1159C50.8354 22.1401 50.7837 22.1756 50.7401 22.2203L46.4991 26.5631L52.0094 32.2077Z" fill="#004106"/>
</svg>
