<svg width="50" height="50" viewBox="0 0 50 50" fill="none" xmlns="http://www.w3.org/2000/svg">
<rect width="50" height="50" rx="25" fill="#FFE8E8"/>
<path d="M25.6562 9.80979C25.567 9.67604 25.4462 9.56638 25.3045 9.49053C25.1627 9.41468 25.0045 9.375 24.8437 9.375C24.683 9.375 24.5247 9.41468 24.383 9.49053C24.2412 9.56638 24.1204 9.67604 24.0312 9.80979L18.1718 18.5989C18.074 18.7459 18.0178 18.9168 18.0094 19.0932C18.001 19.2696 18.0405 19.4451 18.1239 19.6008C18.2073 19.7565 18.3313 19.8867 18.4829 19.9775C18.6344 20.0683 18.8077 20.1163 18.9843 20.1164H19.1757L15.2265 26.4348C15.1341 26.5826 15.083 26.7525 15.0784 26.9267C15.0739 27.101 15.116 27.2733 15.2005 27.4258C15.285 27.5782 15.4088 27.7053 15.559 27.7938C15.7092 27.8823 15.8803 27.9289 16.0547 27.9289H16.4277L13.2285 34.3274C13.1539 34.4763 13.1186 34.6417 13.126 34.8081C13.1333 34.9745 13.1831 35.1362 13.2706 35.2779C13.3581 35.4196 13.4804 35.5366 13.6258 35.6177C13.7712 35.6988 13.935 35.7414 14.1015 35.7414H22.8906V40.6242H26.7968V35.7414H35.5859C35.7524 35.7414 35.9162 35.6988 36.0616 35.6177C36.2071 35.5366 36.3293 35.4196 36.4168 35.2779C36.5043 35.1362 36.5541 34.9745 36.5615 34.8081C36.5689 34.6417 36.5336 34.4763 36.459 34.3274L33.2617 27.9289H33.6347C33.8091 27.9289 33.9802 27.8823 34.1304 27.7938C34.2806 27.7053 34.4044 27.5782 34.4889 27.4258C34.5734 27.2733 34.6155 27.101 34.611 26.9267C34.6064 26.7525 34.5552 26.5826 34.4629 26.4348L30.5117 20.1164H30.7031C30.8797 20.1163 31.0531 20.0683 31.2046 19.9775C31.3561 19.8867 31.4801 19.7565 31.5635 19.6008C31.6469 19.4451 31.6865 19.2696 31.678 19.0932C31.6696 18.9168 31.6135 18.7459 31.5156 18.5989L25.6562 9.80979ZM21.791 18.6672C21.7066 18.5147 21.583 18.3875 21.4329 18.2989C21.2828 18.2103 21.1118 18.1635 20.9375 18.1633H20.8086L24.8437 12.1106L28.8789 18.1633H28.75C28.5756 18.1633 28.4045 18.21 28.2543 18.2984C28.1041 18.3869 27.9803 18.514 27.8958 18.6665C27.8113 18.8189 27.7692 18.9912 27.7737 19.1655C27.7783 19.3398 27.8295 19.5096 27.9218 19.6574L31.8711 25.9758H31.6797C31.5131 25.9758 31.3494 26.0184 31.2039 26.0995C31.0585 26.1807 30.9362 26.2976 30.8487 26.4393C30.7613 26.581 30.7115 26.7428 30.7041 26.9091C30.6967 27.0755 30.732 27.241 30.8066 27.3899L34.0039 33.7883H15.6816L18.8808 27.3899C18.9554 27.241 18.9907 27.0755 18.9834 26.9091C18.976 26.7428 18.9262 26.581 18.8387 26.4393C18.7512 26.2976 18.6289 26.1807 18.4835 26.0995C18.3381 26.0184 18.1743 25.9758 18.0078 25.9758H17.8164L21.7656 19.6574C21.8577 19.5097 21.9087 19.3399 21.9132 19.1658C21.9176 18.9917 21.8754 18.8195 21.791 18.6672Z" fill="#E36B6B"/>
</svg>
