<svg width="50" height="50" viewBox="0 0 50 50" fill="none" xmlns="http://www.w3.org/2000/svg">
<rect width="50" height="50" rx="25" fill="#FFE8E8"/>
<g clip-path="url(#clip0_4_38)">
<path d="M25.8906 39.2031C33.7422 38.7344 39.7188 31.9609 39.2031 24.1094C38.7344 16.2578 31.9609 10.2812 24.1094 10.7969C16.2578 11.2656 10.2813 18.0391 10.7969 25.8906C11.2656 33.7188 18.0391 39.6719 25.8906 39.2031ZM21.8125 22.0703C21.4141 21.2969 22.5391 20.875 23.125 20.2891C23.8516 19.5156 25.4219 18.25 25.2344 17.7812C25.0469 17.2656 23.4531 15.8594 22.5859 16.1875C22.3984 16.1875 21.3906 17.3125 21.1563 17.5C21.1563 17.1016 21.0859 16.8906 21.0859 16.5156C21.0859 16.2578 20.5703 16.0469 20.6172 15.8594C20.6641 15.4141 21.7422 14.5937 22 14.2656C21.7891 14.125 21.0625 13.6094 20.875 13.6797C20.4063 13.9375 19.8203 14.125 19.3047 14.3359C19.3047 14.1484 19.2578 13.9609 19.2344 13.8672C20.2188 13.3516 21.2734 13 22.375 12.7422L23.3594 13.1172L24.0859 13.8906L24.8125 14.5703C24.8125 14.5703 25.2578 14.7578 25.4219 14.7578C25.6328 14.7109 26.3359 13.8203 26.3359 13.8203L26.0547 13.1406L26.0078 12.5313C27.9766 12.7188 29.7813 13.3047 31.4219 14.3125C31.1641 14.3594 30.8125 14.3828 30.4844 14.5C30.3438 14.4297 29.5703 14.5703 29.6172 14.8984C29.6641 15.1562 31 16.2344 31.5859 17.1953C32.1719 18.1797 33.8125 18.7891 34.0938 19.8906C34.375 21.1562 33.9063 22.7969 34.1406 24.3203C34.3516 25.8203 35.9922 27.3672 35.9922 27.3672C35.9922 27.3672 36.7188 27.5781 37.3047 27.4375C36.8594 29.6641 35.875 31.7031 34.3516 33.4375C32.6406 35.3594 30.4844 36.7187 28.0469 37.3047C28.3281 36.4375 28.9141 35.5937 29.4766 35.125C29.9453 34.6797 30.5313 33.9297 30.7422 33.3438C30.9531 32.7344 31.2578 32.2188 31.6094 31.6328C32.0547 30.8594 30.2734 29.7813 29.6875 29.5938C28.375 29.125 27.3906 28.4687 26.2656 27.7422C25.4219 27.2266 22.9141 28.3984 21.9766 28.0234C20.7109 27.5547 20.2656 27.1563 19.1406 26.4297C17.9688 25.6563 18.2969 24.0391 18.2266 22.8203C19.0938 22.8203 20.2891 22.4453 20.9219 23.1016C21.1094 23.3125 21.7891 24.2266 22.1875 23.875C22.6094 23.4297 21.9531 22.3281 21.8125 22.0703ZM14.8281 17.5937C14.8984 18.2031 15.2266 18.6953 15.2266 19.1172C15.2266 20.8281 15.0859 21.8359 16.1641 23.1953C16.6094 23.7109 16.75 24.5078 16.9375 25.1641C17.1484 25.7734 17.875 26.0781 18.4375 26.4297C19.4922 27.1094 20.5 28 21.6484 28.6094C22.375 29.0078 22.8203 29.2188 22.7031 30.1094C22.5625 30.7891 22.5625 31.2344 22.2344 31.8906C22.1641 32.1016 22.75 33.2734 22.9141 33.4141C23.5 33.8828 24.0391 34.3516 24.6719 34.7969C25.6094 35.4766 24.6719 36.5078 24.2969 37.5625C21.5313 37.375 18.8828 36.2969 16.7266 34.4219C14.2188 32.1953 12.7188 29.1016 12.5078 25.7969C12.2734 22.7734 13 19.9609 14.8281 17.5937Z" fill="#E36B6B"/>
</g>
<defs>
<clipPath id="clip0_4_38">
<rect width="30" height="30" fill="white" transform="translate(10 10)"/>
</clipPath>
</defs>
</svg>
